<svg data-v-fde0c5aa="" xmlns="http://www.w3.org/2000/svg" viewBox="0 0 300 300" class="font"><!----><defs data-v-fde0c5aa=""><linearGradient data-v-fde0c5aa="" gradientTransform="rotate(25)" id="2e9b68ba-ccdf-4f9e-9820-631b0f3f1d04" x1="0%" y1="0%" x2="100%" y2="0%"><stop data-v-fde0c5aa="" offset="0%" stop-color="#21690F" stop-opacity="1"></stop><stop data-v-fde0c5aa="" offset="100%" stop-color="#88C848" stop-opacity="1"></stop></linearGradient></defs><rect data-v-fde0c5aa="" fill="url(#2e9b68ba-ccdf-4f9e-9820-631b0f3f1d04)" x="0" y="0" width="300px" height="300px" class="logo-background-square"></rect><defs data-v-fde0c5aa=""><!----></defs><g data-v-fde0c5aa="" id="dd136566-276e-4fa1-9219-e202d3c7d16b" fill="#ffffff" transform="matrix(4.923903278812533,0,0,4.923903278812533,36.651745735188975,107.13742350755093)"><path d="M9.04 8.52L5.41 8.52L5.41 9.61L7.71 9.61L7.70 11.74C7.38 12.00 6.89 12.52 5.51 12.52C3.46 12.52 1.94 10.99 1.94 8.94C1.94 6.89 3.46 5.36 5.51 5.36C6.90 5.36 7.64 6.07 8.26 6.49L8.26 5.14C7.62 4.57 6.84 4.16 5.51 4.16C2.75 4.16 0.68 6.32 0.68 8.94C0.68 11.57 2.75 13.73 5.51 13.73C7.11 13.73 8.38 12.99 9.04 12.28ZM13.84 6.55C11.76 6.55 10.27 8.20 10.27 10.14C10.27 12.09 11.76 13.73 13.84 13.73C15.91 13.73 17.40 12.09 17.40 10.14C17.40 8.20 15.91 6.55 13.84 6.55ZM13.84 7.64C15.30 7.64 16.24 8.82 16.24 10.14C16.24 11.47 15.30 12.63 13.84 12.63C12.37 12.63 11.43 11.47 11.43 10.14C11.43 8.82 12.37 7.64 13.84 7.64ZM20.37 13.52L20.37 3.68L19.25 3.68L19.25 13.52ZM25.51 6.55C23.64 6.55 22.22 7.96 22.22 10.21C22.22 12.29 23.64 13.73 25.40 13.73C26.44 13.73 27.28 13.08 27.75 12.36L27.75 13.52L28.88 13.52L28.88 6.69L27.75 6.69L27.75 7.60C27.17 6.95 26.29 6.55 25.51 6.55ZM25.72 7.64C26.55 7.64 27.17 8.07 27.74 8.78L27.75 10.09C27.77 11.55 26.82 12.63 25.58 12.63C24.25 12.63 23.38 11.54 23.38 10.21C23.38 8.89 24.25 7.64 25.72 7.64ZM36.65 7.05L36.65 6.69L31.06 6.69L31.06 7.74L34.77 7.74L30.79 13.15L30.79 13.52L36.79 13.52L36.79 12.47L32.54 12.47ZM41.79 6.55C39.72 6.55 38.23 8.20 38.23 10.14C38.23 12.09 39.72 13.73 41.79 13.73C43.87 13.73 45.36 12.09 45.36 10.14C45.36 8.20 43.87 6.55 41.79 6.55ZM41.79 7.64C43.26 7.64 44.20 8.82 44.20 10.14C44.20 11.47 43.26 12.63 41.79 12.63C40.33 12.63 39.39 11.47 39.39 10.14C39.39 8.82 40.33 7.64 41.79 7.64Z"></path></g><!----><!----></svg>